<svg xmlns="http://www.w3.org/2000/svg" viewBox="0 0 48 48" width="500px" height="500px" baseProfile="basic">
  <path fill="#9fa8da" d="M46.119,16.647L30.386,9.515c-1.426-0.646-3.059-0.658-4.494-0.033L9.509,16.624 c-0.76,0.331-0.756,1.411,0.006,1.737l7.002,2.994v15.948c0,1.136,0.682,2.151,1.726,2.598c2.327,0.998,5.865,2.112,10.257,2.116 c4.416,0.004,7.973-1.115,10.307-2.116c1.044-0.448,1.727-1.462,1.727-2.598V21h-0.097l5.689-2.633 C46.86,18.027,46.856,16.981,46.119,16.647z" />
  <path fill="#18193f" d="M41.767,42.789c-4.313,4.313-11.243,4.313-15.556,0c-4.384-4.384-4.384-11.172,0-15.556 s11.172-4.384,15.556,0c0.566,0.566,0.566,1.556,0,2.121s-1.556,0.566-2.121,0c-3.182-3.182-8.132-3.182-11.314,0 s-3.182,8.132,0,11.314c3.111,3.111,8.202,3.111,11.314,0c1.344-1.344,2.192-3.041,2.263-4.808 c0.071-0.778,0.778-1.485,1.556-1.414c0.778,0.071,1.485,0.778,1.414,1.556C44.737,38.547,43.605,40.951,41.767,42.789z" />
  <path fill="#18193f" d="M33.689,28.511c-0.8,0-1.4,0.6-1.5,1.3c-1.2,0.5-2.1,1.8-2.1,3.2c0,1.9,1.5,3.4,3.4,3.4h0.9 c0.2,0,0.4,0.2,0.4,0.4c0,0.2-0.1,0.4-0.4,0.4h-3c-0.8,0-1.5,0.7-1.5,1.5s0.7,1.5,1.5,1.5h0.9c0.1,0.7,0.7,1.2,1.5,1.2 c0.7,0,1.4-0.5,1.5-1.3c1.5-0.3,2.7-1.7,2.7-3.4c0-1.9-1.5-3.4-3.4-3.4h-0.9c-0.2,0-0.4-0.2-0.4-0.4c0-0.3,0.2-0.4,0.4-0.4h2.3 c0.8,0,1.5-0.7,1.5-1.5c0-0.8-0.7-1.4-1.5-1.4h-0.8C34.989,28.911,34.389,28.511,33.689,28.511z" />
  <path fill="#18193f" d="M24.848,35.979c-0.28,0.01-0.56,0.022-0.842,0.021c-1.829-0.006-3.704-0.262-5.558-0.748 c-0.739-0.194-1.504,0.211-1.787,0.921c-0.329,0.829,0.15,1.753,1.013,1.979c2.049,0.535,4.125,0.819,6.159,0.84 C23.886,38.998,23.94,39,23.994,39c0.003,0,0.005,0,0.008,0c0.705,0.002,1.403-0.037,2.099-0.098L24.848,35.979z" />
  <path fill="#18193f" d="M45.135,12.141L27.027,3.686C26.063,3.235,25.031,3.01,24,3.01s-2.063,0.225-3.027,0.676 L2.865,12.141c-0.037,0.018-0.072,0.038-0.107,0.059c-0.018,0.01-0.037,0.02-0.055,0.031c-0.064,0.04-0.125,0.084-0.182,0.133 c-0.015,0.013-0.03,0.027-0.045,0.041c-0.063,0.059-0.12,0.123-0.172,0.191c-0.002,0.003-0.006,0.005-0.008,0.008 C2.24,12.68,2.191,12.762,2.15,12.848c-0.003,0.006-0.007,0.011-0.01,0.018c-0.003,0.006-0.003,0.012-0.006,0.018 c-0.038,0.084-0.068,0.171-0.09,0.26c-0.001,0.003-0.003,0.006-0.004,0.01c-0.021,0.093-0.034,0.188-0.037,0.283 c0,0.003-0.002,0.005-0.002,0.008c-0.007,0.189,0.021,0.377,0.084,0.555c0.004,0.01,0.008,0.019,0.012,0.029 c0.065,0.175,0.163,0.336,0.287,0.475c0.001,0.001,0.001,0.003,0.002,0.004c0.135,0.148,0.297,0.267,0.479,0.352l5.169,2.414 c0.602,0.281,1.318,0.127,1.748-0.379c0.009-0.011,0.019-0.022,0.028-0.033c0.634-0.743,0.388-1.886-0.497-2.3l-2.24-1.046 c-0.012-0.005-0.012-0.022,0-0.028l15.161-7.079c1.118-0.522,2.41-0.522,3.528,0l15.161,7.079c0.012,0.005,0.012,0.022,0,0.028 l-15.161,7.081c-1.118,0.522-2.41,0.522-3.529,0l-5.186-2.423c-0.012-0.005-0.012-0.022,0-0.028l7.082-3.283 c0.023-0.01,0.046-0.022,0.068-0.033c0.479-0.243,0.792-0.724,0.819-1.261c0.043-0.827-0.594-1.533-1.421-1.575 c-0.251-0.013-0.502,0.037-0.729,0.146L12.09,17.137c-0.001,0.001-0.003,0.001-0.004,0.002c-0.306,0.089-0.577,0.273-0.771,0.525 c-0.026,0.033-0.051,0.067-0.074,0.102c-0.212,0.314-0.298,0.696-0.24,1.07v13.659c0,0.004-0.002,0.008-0.006,0.011 c-0.624,0.472-0.991,1.209-0.992,1.991C10.001,35.878,11.119,36.999,12.5,37c0.783-0.002,1.52-0.37,1.991-0.995 c0.83-1.101,0.612-2.665-0.485-3.497C14.002,32.505,14,32.501,14,32.497V20.082c0-0.011,0.012-0.018,0.022-0.014l6.944,3.243 c1.923,0.898,4.145,0.898,6.068,0l7.945-3.71C34.988,19.597,35,19.605,35,19.616v4.634L38,25v-6.5 c0.001-0.1-0.008-0.199-0.027-0.297l7.162-3.344c0.319-0.149,0.576-0.406,0.725-0.725C46.21,13.384,45.885,12.491,45.135,12.141z" />
</svg>