<svg xmlns="http://www.w3.org/2000/svg" viewBox="0 0 32 32" width="500px" height="500px">
  <path d="M30.565,14.494C29.77,12.781,28.097,12,26.879,12c-4.372,0-7.769,4.153-8.865,10.838c-0.009,0.055,0.005,0.107,0.005,0.162 h-1c0.093-3.578,1.179-7.32,3.255-11.137C20.749,10.99,21,10,21,9c0-3.343-1.053-9-5-9c-0.553,0-1,0.447-1,1s0.447,1,1,1 c0.208,0,0.399,0.05,0.583,0.122c0.089,0.042,0.18,0.076,0.261,0.137c0.663,0.496,0.798,1.437,0.301,2.1 c-0.736,0.983-1.175,2.931-1.144,5.083c0.012,0.828-0.65,1.51-1.479,1.521c-0.007,0-0.015,0-0.021,0 c-0.576,0-1.073-0.329-1.324-0.808c-0.11-0.364-0.173-0.743-0.175-1.126c0.011-0.737,0.075-1.784,0.297-2.896 c0.004-0.021,0.009-0.042,0.014-0.063c0.052-0.253,0.111-0.51,0.181-0.766c0.003-0.012,0.007-0.024,0.01-0.037 c0.151-0.549,0.345-1.097,0.595-1.614c-0.003-0.001-0.006-0.002-0.009-0.003c0.013-0.027,0.024-0.057,0.037-0.083 c0.25-0.493,0.054-1.095-0.438-1.345c-0.494-0.25-1.095-0.053-1.345,0.438C11.353,4.616,11,7.297,11,9c0,1,0.251,1.989,0.727,2.862 c2.076,3.817,3.162,7.56,3.255,11.137h-1c0-0.054,0.014-0.106,0.005-0.162C12.889,16.154,9.492,12,5.121,12 c-1.218,0-2.891,0.78-3.687,2.493c-0.777,1.675-0.902,4.622,2.923,9.152c0.271,0.32,0.713,0.438,1.106,0.294 c0.395-0.144,0.657-0.519,0.657-0.938c0.002-1.678,1.243-2.078,1.983-2.168c1.472-0.172,3.301,0.61,3.839,2.178 C11.419,23.042,11,23.468,11,24c0,0.552,0.448,1,1,1h2c0,0.765-0.586,2.117-1.758,2.708c-0.418,0.211-0.303,0.836,0.159,0.906 c0.57,0.085,1.208,0.038,1.804-0.153c0.131,0.873,1.007,1.976,1.518,2.552c0.193,0.218,0.527,0.218,0.72,0 c0.501-0.564,1.355-1.637,1.512-2.502c0.549,0.149,1.124,0.18,1.643,0.103c0.463-0.069,0.577-0.695,0.159-0.906 C18.586,27.117,18,25.765,18,25h2c0.552,0,1-0.448,1-1c0-0.532-0.419-0.958-0.944-0.989c0.536-1.568,2.347-2.35,3.84-2.178 c0.739,0.09,1.981,0.49,1.983,2.168c0,0.42,0.263,0.795,0.657,0.938c0.395,0.146,0.836,0.028,1.106-0.294 C31.468,19.116,31.343,16.168,30.565,14.494z M3.249,15.336C3.701,14.363,4.637,14,5.121,14c0.385,0,0.758,0.063,1.123,0.155 c0.338,0.223,0.589,0.577,0.66,1.008c0.134,0.817-0.42,1.589-1.237,1.724c-0.606,0.1-0.934,0.761-1.047,1.04 c-0.277,0.689-0.376,1.75,0.045,2.838C2.652,17.838,2.876,16.139,3.249,15.336z" fill="#000000" />
</svg>