<svg xmlns="http://www.w3.org/2000/svg" viewBox="0 0 64 64" width="500px" height="500px">
  <path d="M49,35c0,0,4.3,3.21,10,4.1l-1,2.71c0,0-2.03,0.6-5.34,0.98C53.49,44.59,56,46,56,46l-0.78,1.73c0,0-6.06,1.66-10.22,0.27 c0,0,0,1,2,3l-1.35,1.63c0,0-5.53-1.69-9.8-5.44c-0.01,2.01-0.13,4-0.31,5.98c-0.3,3.11-0.76,6.18-1.27,9.21l-3.92-0.76 c0.66-2.96,1.27-5.91,1.71-8.87c0.23-1.58,0.43-3.17,0.55-4.75c0.44-3.53,0.77-7.08,0.99-10.64c0.33-5.12,0.49-10.22,0.4-15.37 l-2,0.02c-0.08,5.04-0.4,10.12-0.89,15.15c-0.33,3.51-0.77,7-1.32,10.47c-4.21,3.8-9.44,6-9.44,6L19,52c2-2,2-4,2-4 c-4.16,1.39-10.22-0.27-10.22-0.27L10,46c0,0,2.51-1.41,3.34-3.21c-3.31-0.38-6.69-0.98-6.69-0.98L6,39.1c5.7-0.89,10-4.1,10-4.1 C8.91,32.35,5.02,24.16,5.02,24.16l1.54-1C8.12,24.17,10,24,10,24c-2-3-2-8-2-8l2-1c2.87,3.02,6,4,6,4v-3l1.73-0.59 C20.5,20.04,25,24,25,24c-0.72-5.04,0-13,0-13l2-1c1,1,2,2,2,2c1.15-3.76,2.6-9,2.6-9H34c2.18,4.67,3,9,3,9s0.74-0.96,2-2l2,1 c0.96,5.66,1,12,1,12c3.28-0.63,6.28-6.87,6.28-6.87l1.47,0.62C50.42,18.97,50,21,50,21c3.5-0.89,6.37-3.94,6.37-3.94l1.51,1.59 C56.96,22.72,54,26,54,26s2.02,0.7,4,0l1.2,1.4C53.67,33.54,49,35,49,35z" fill="#000000" />
</svg>