<svg xmlns="http://www.w3.org/2000/svg" viewBox="0 0 48 48" width="500px" height="500px">
  <path fill="#e5a24a" d="M15.937 34.998C8.103 34.501 0 29.877 0 23c0-3.99 2.794-7 6.5-7 2.167 0 4.5 1.291 4.5 4.125C11 22.406 9.509 24 7.375 24 5.779 24 4 22.768 4 21h2c0 .477.72 1 1.375 1C8.883 22 9 20.564 9 20.125 9 18.557 7.653 18 6.5 18 3.935 18 2 20.149 2 23c0 5.702 7.15 9.563 14.063 10.002L15.937 34.998zM32.063 34.998l-.127-1.996C38.85 32.563 46 28.702 46 23c0-2.851-1.935-5-4.5-5-1.153 0-2.5.557-2.5 2.125C39 20.564 39.117 22 40.625 22 41.28 22 42 21.477 42 21h2c0 1.768-1.779 3-3.375 3C38.491 24 37 22.406 37 20.125 37 17.291 39.333 16 41.5 16c3.706 0 6.5 3.01 6.5 7C48 29.877 39.897 34.501 32.063 34.998zM27 40v1h-6v-1l-2-12h10L27 40z" />
  <path fill="#ffba57" d="M32,43H16v-1.2c0-0.663,5-1.8,5-1.8h6c0,0,5,1.137,5,1.8V43z" />
  <path fill="#a5d6a7" d="M16 6H32V25H16z" />
  <path fill="#388e3c" d="M24 10A2 2 0 1 0 24 14 2 2 0 1 0 24 10zM24 16A5 5 0 1 0 24 26 5 5 0 1 0 24 16z" />
  <path fill="#388e3c" d="M17,7h14v17H17V7 M15,5v21h18V5H15L15,5z" />
  <path fill="#1b5e20" d="M15 18H33V20H15z" />
  <path fill="#43a047" d="M17 18H31V20H17z" />
  <path fill="#388e3c" d="M16 6v3.489C16.419 9.805 16.935 10 17.5 10c1.381 0 2.5-1.119 2.5-2.5 0-.565-.195-1.081-.511-1.5H16zM28.511 6C28.195 6.419 28 6.935 28 7.5c0 1.381 1.119 2.5 2.5 2.5.565 0 1.081-.195 1.5-.511V6H28.511z" />
  <path fill="#1b5e20" d="M20.023,18C19.39,18.838,19,19.869,19,21c0,2.761,2.239,5,5,5s5-2.239,5-5c0-1.131-0.39-2.162-1.023-3H20.023z" />
  <path fill="#ffba57" d="M26,37h-4c-7.18,0-13-5.82-13-13v-4h30v4C39,31.18,33.18,37,26,37z" />
</svg>