<svg xmlns="http://www.w3.org/2000/svg" viewBox="0 0 100 100" width="500px" height="500px" baseProfile="basic">
  <path d="M91.86,67.32c2.31,3.17,3.64,7.06,3.64,11.18c0,10.48-8.52,19-19,19c-9.97,0-18.17-7.72-18.94-17.5H23 c-3.86,0-7-3.14-7-7V50l-9-6c-2.53-1.56-5-2.02-5-5s1.51-5.68,4.02-7.22L44.37,7.89c2-1.24,4.29-1.9,6.63-1.9 s4.63,0.66,6.63,1.91l38.33,23.86C98.49,33.32,100,36.02,100,39s-1.51,5.68-4.02,7.23l-1.26,0.78c2.04,2.02,3.28,4.86,3.28,7.9 c0,4.11-3.36,9.01-5.37,11.57C92.4,66.79,92.14,67.06,91.86,67.32z" opacity=".35" />
  <path fill="#f2f2f2" d="M89.86,65.32c2.31,3.17,3.64,7.06,3.64,11.18c0,10.48-8.52,19-19,19 c-9.97,0-18.17-7.72-18.94-17.5H21c-3.86,0-7-3.14-7-7V50.45l-9.96-6.21C1.51,42.68,0,39.98,0,37s1.51-5.68,4.02-7.22L42.37,5.89 c2-1.24,4.29-1.9,6.63-1.9s4.63,0.66,6.63,1.91l38.33,23.86C96.49,31.32,98,34.02,98,37s-1.51,5.68-4.02,7.23l-1.26,0.78 c2.04,2.02,3.28,4.86,3.28,7.9c0,4.11-3.36,9.01-5.37,11.57C90.4,64.79,90.14,65.06,89.86,65.32z" />
  <path fill="#707cc0" d="M45.807,11.413L7.449,35.292c-1.265,0.788-1.265,2.629,0,3.417l38.358,23.879 c1.955,1.217,4.432,1.217,6.386,0l38.358-23.879c1.265-0.788,1.265-2.629,0-3.417L52.193,11.413 C50.238,10.196,47.762,10.196,45.807,11.413z" />
  <path fill="#9aa2e6" d="M77.5,46.5c0-6.075-12.76-13-28.5-13s-28.5,6.925-28.5,13c0,0.829,0,26,0,26C46,73,57,73,77.5,72.5 C77.5,72.5,77.5,47.125,77.5,46.5z" />
  <path fill="#ffc571" d="M85.5,60.5c0,0,4-5.156,4-7.592c0-2.435-1.79-4.408-4-4.408s-4,1.973-4,4.408 C81.5,55.344,85.5,60.5,85.5,60.5z" />
  <circle cx="74.5" cy="76.5" r="11" fill="#ffc571" />
  <path fill="#fff" d="M74.566,84.389c-0.289,0-0.528-0.097-0.717-0.291c-0.19-0.194-0.284-0.431-0.284-0.708v-0.983 c-0.644-0.044-1.214-0.147-1.708-0.308c-0.494-0.161-0.914-0.33-1.258-0.508c-0.312-0.155-0.506-0.375-0.583-0.658 c-0.078-0.284-0.064-0.556,0.041-0.818c0.106-0.26,0.283-0.45,0.533-0.566c0.25-0.117,0.548-0.091,0.892,0.075 c0.267,0.145,0.639,0.292,1.117,0.442c0.478,0.15,1.06,0.224,1.749,0.224c0.766,0,1.311-0.122,1.633-0.366 c0.322-0.244,0.483-0.549,0.483-0.917c0-0.299-0.112-0.549-0.334-0.749s-0.623-0.361-1.199-0.483l-1.832-0.4 c-2.022-0.444-3.033-1.522-3.033-3.232c0-0.933,0.317-1.722,0.95-2.366c0.634-0.644,1.483-1.049,2.549-1.217V69.51 c0-0.277,0.093-0.513,0.284-0.708c0.19-0.194,0.428-0.292,0.718-0.292c0.277,0,0.511,0.097,0.7,0.292 c0.188,0.194,0.284,0.43,0.284,0.708v1c0.411,0.056,0.835,0.155,1.275,0.3c0.439,0.145,0.824,0.334,1.158,0.566 c0.266,0.166,0.43,0.381,0.492,0.642c0.061,0.26,0.036,0.508-0.075,0.741c-0.112,0.234-0.292,0.397-0.541,0.492 c-0.25,0.095-0.553,0.053-0.907-0.125c-0.301-0.144-0.628-0.266-0.983-0.366c-0.356-0.1-0.794-0.15-1.317-0.15 c-0.644,0-1.149,0.134-1.516,0.4c-0.366,0.266-0.549,0.611-0.549,1.033c0,0.3,0.108,0.548,0.324,0.742 c0.217,0.194,0.597,0.353,1.141,0.475l1.849,0.4c1.055,0.234,1.835,0.614,2.341,1.142C78.748,77.328,79,78.003,79,78.824 c0,0.944-0.319,1.722-0.958,2.332c-0.639,0.612-1.47,1.006-2.491,1.183v1.049c0,0.277-0.095,0.514-0.284,0.708 C75.078,84.292,74.844,84.389,74.566,84.389z" />
  <path fill="#40396e" d="M91.34,34.02L52.99,10.14c-2.46-1.53-5.52-1.53-7.98,0L6.66,34.02C5.62,34.66,5,35.78,5,37 s0.62,2.34,1.66,2.98L19,47.67V71c0,1.1,0.9,2,2,2h39.94c-0.29,1.12-0.44,2.29-0.44,3.5c0,7.72,6.28,14,14,14s14-6.28,14-14 c0-6.15-3.98-11.38-9.5-13.25V47.67l5-3.12v2.68c-2.3,0.7-4,2.98-4,5.68c0,2.8,3.59,7.58,4.32,8.51C84.6,61.79,85.04,62,85.5,62 s0.9-0.21,1.18-0.58c0.73-0.93,4.32-5.71,4.32-8.51c0-2.7-1.7-4.98-4-5.68v-4.55l4.34-2.7C92.38,39.34,93,38.22,93,37 S92.38,34.66,91.34,34.02z M85.5,76.5c0,6.623-5.868,11.888-12.683,10.875c-5.305-0.789-9.304-5.484-9.317-10.848 c-0.003-1.24,0.197-2.419,0.57-3.527c0.18-0.545,0.402-1.07,0.662-1.571C65.071,70.777,64.56,70,63.825,70H22V46.5 c0-0.16,0.02-0.31,0.04-0.48C22.77,41.41,33.86,35,49,35s26.23,6.41,26.96,11.02C75.98,46.19,76,46.34,76,46.5v18.244 c0,0.471,0.318,0.9,0.78,0.995c0.771,0.159,1.515,0.406,2.22,0.721C82.83,68.18,85.5,72.03,85.5,76.5z M88,52.91 c0,0.92-1.15,3.05-2.5,5.03C84.25,56.1,83,53.9,83,52.91C83,51.3,84.12,50,85.5,50S88,51.3,88,52.91z M89.76,37.44L87,39.16V38.5 c0-0.83-0.67-1.5-1.5-1.5S84,37.67,84,38.5v2.52l-5.38,3.35C76.28,37.66,63.21,32,49,32s-27.28,5.66-29.62,12.37L8.24,37.44 C8.03,37.3,8,37.11,8,37s0.03-0.3,0.24-0.44L46.6,12.69c1.48-0.93,3.32-0.93,4.8,0l38.36,23.87C89.97,36.7,90,36.89,90,37 S89.97,37.3,89.76,37.44z" />
</svg>